<?xml version="1.0" standalone="no"?>
<!DOCTYPE svg PUBLIC "-//W3C//DTD SVG 20010904//EN"
 "http://www.w3.org/TR/2001/REC-SVG-20010904/DTD/svg10.dtd">
<svg version="1.0" xmlns="http://www.w3.org/2000/svg"
 width="512.000000pt" height="512.000000pt" viewBox="0 0 512.000000 512.000000"
 preserveAspectRatio="xMidYMid meet">

<g transform="translate(0.000000,512.000000) scale(0.100000,-0.100000)"
fill="#000000" stroke="none">
<path d="M1975 5114 c-758 -63 -1411 -498 -1745 -1164 -157 -313 -223 -599
-223 -960 0 -363 68 -655 224 -960 368 -723 1086 -1162 1899 -1162 595 0 1129
228 1540 658 385 403 583 906 582 1474 -1 340 -67 629 -212 925 -311 636 -897
1064 -1599 1170 -102 15 -375 26 -466 19z m370 -565 c239 -31 456 -114 670
-257 136 -90 328 -282 417 -417 184 -278 268 -554 268 -880 0 -259 -48 -470
-159 -697 -341 -702 -1154 -1044 -1903 -802 -449 145 -823 506 -988 955 -114
307 -123 697 -24 1009 172 545 622 954 1179 1071 177 37 350 42 540 18z"/>
<path d="M1072 3180 c-67 -30 -87 -84 -86 -230 2 -503 429 -984 1002 -1130
213 -54 378 -46 358 17 -3 11 -55 51 -113 89 -310 200 -426 290 -529 415 -120
143 -183 260 -241 444 -45 141 -93 233 -162 307 -87 94 -157 121 -229 88z"/>
<path d="M3990 1618 c-109 -156 -381 -418 -560 -540 l-25 -17 490 -489 c542
-541 539 -538 693 -563 303 -49 572 220 523 523 -24 154 -22 151 -560 691
-267 268 -488 487 -491 487 -3 0 -35 -42 -70 -92z"/>
</g>
</svg>
