<?xml version="1.0" standalone="no"?>
<!DOCTYPE svg PUBLIC "-//W3C//DTD SVG 20010904//EN"
 "http://www.w3.org/TR/2001/REC-SVG-20010904/DTD/svg10.dtd">
<svg version="1.0" xmlns="http://www.w3.org/2000/svg"
 width="512.000000pt" height="512.000000pt" viewBox="0 0 512.000000 512.000000"
 preserveAspectRatio="xMidYMid meet">

<g transform="translate(0.000000,512.000000) scale(0.100000,-0.100000)"
fill="#000000" stroke="none">
<path d="M690 5104 c-131 -35 -253 -128 -312 -240 -62 -115 -58 35 -58 -2304
0 -2338 -4 -2189 58 -2304 15 -28 54 -79 88 -112 147 -147 376 -185 557 -93
76 39 3511 2071 3570 2112 245 170 277 524 68 736 -49 49 -287 194 -1806 1091
-962 569 -1777 1049 -1810 1066 -114 61 -241 78 -355 48z"/>
</g>
</svg>
