<?xml version="1.0" standalone="no"?>
<!DOCTYPE svg PUBLIC "-//W3C//DTD SVG 20010904//EN"
 "http://www.w3.org/TR/2001/REC-SVG-20010904/DTD/svg10.dtd">
<svg version="1.0" xmlns="http://www.w3.org/2000/svg"
 width="512.000000pt" height="512.000000pt" viewBox="0 0 512.000000 512.000000"
 preserveAspectRatio="xMidYMid meet">

<g transform="translate(0.000000,512.000000) scale(0.100000,-0.100000)"
fill="#000000" stroke="none">
<path d="M4060 4580 l0 -291 -25 -24 -24 -25 -287 0 c-209 0 -315 -4 -392 -16
-352 -52 -678 -255 -880 -547 l-53 -76 19 -38 c28 -53 101 -285 158 -500 45
-170 64 -216 64 -160 0 12 11 63 25 114 75 281 207 487 388 606 177 117 275
137 672 137 263 0 284 -1 306 -19 l24 -19 5 -297 5 -297 410 431 c225 236 411
434 412 438 3 9 -801 865 -818 871 -5 2 -9 -112 -9 -288z m433 -337 c166 -166
187 -192 187 -243 0 -47 -20 -78 -108 -162 -88 -86 -112 -94 -158 -55 -47 41
-38 77 36 152 l64 65 -142 143 c-124 125 -142 148 -142 176 0 40 38 81 76 81
22 0 59 -32 187 -157z"/>
<path d="M230 4001 l0 -240 508 -3 c487 -4 510 -5 579 -26 150 -45 251 -103
361 -206 66 -62 155 -188 192 -271 12 -27 109 -372 217 -765 107 -393 210
-752 228 -798 71 -174 169 -317 312 -453 183 -173 385 -279 638 -335 64 -14
148 -19 416 -23 313 -6 338 -7 358 -25 20 -19 21 -27 21 -313 0 -178 4 -293 9
-291 18 6 821 862 818 871 -1 5 -185 202 -407 438 l-405 428 -5 -295 -5 -296
-25 -20 c-23 -19 -37 -19 -340 -15 -356 4 -380 8 -536 82 -193 93 -341 249
-414 436 -16 42 -117 391 -225 777 -107 385 -210 737 -229 781 -144 342 -433
614 -776 731 -184 62 -190 63 -762 67 l-528 4 0 -240z"/>
<path d="M1971 2182 c-18 -98 -76 -266 -122 -352 -94 -174 -217 -298 -374
-376 -177 -87 -181 -88 -747 -92 l-498 -3 0 -240 0 -240 528 4 c455 3 537 6
602 21 315 73 571 232 764 475 29 36 63 83 75 104 l23 38 -25 52 c-32 68 -112
317 -167 517 -23 85 -43 156 -44 157 -2 2 -8 -27 -15 -65z m-4 -664 c41 -39
32 -75 -39 -145 -114 -110 -169 -139 -218 -113 -22 12 -40 61 -33 90 3 11 50
59 105 105 110 94 141 104 185 63z m-483 -299 c28 -33 32 -59 16 -90 -27 -50
-155 -78 -395 -86 l-181 -6 -29 25 c-38 33 -39 82 -3 113 23 20 40 22 194 28
121 4 189 11 239 25 105 29 129 28 159 -9z"/>
</g>
</svg>
