<?xml version="1.0" standalone="no"?>
<!DOCTYPE svg PUBLIC "-//W3C//DTD SVG 20010904//EN"
 "http://www.w3.org/TR/2001/REC-SVG-20010904/DTD/svg10.dtd">
<svg version="1.0" xmlns="http://www.w3.org/2000/svg"
 width="512.000000pt" height="512.000000pt" viewBox="0 0 512.000000 512.000000"
 preserveAspectRatio="xMidYMid meet">

<g transform="translate(0.000000,512.000000) scale(0.100000,-0.100000)"
fill="#000000" stroke="none">
<path d="M3992 4898 c-9 -9 -12 -340 -12 -1430 l0 -1418 405 0 c317 0 405 3
406 13 0 6 0 646 0 1421 -1 1121 -3 1411 -13 1418 -22 13 -772 10 -786 -4z"/>
<path d="M1460 4544 c-92 -24 -161 -65 -235 -139 -61 -61 -79 -88 -141 -215
-39 -80 -221 -433 -403 -785 -361 -694 -369 -715 -356 -840 23 -229 189 -419
403 -464 36 -7 291 -11 792 -11 l740 0 31 -28 c26 -23 31 -35 31 -68 -1 -21
-40 -329 -87 -684 -62 -461 -86 -664 -82 -710 9 -132 100 -268 225 -333 171
-90 350 -63 482 72 74 75 119 166 174 346 92 305 417 1255 441 1292 23 34 42
41 184 64 l131 22 0 1249 0 1248 -1137 -1 c-965 0 -1146 -3 -1193 -15z"/>
</g>
</svg>
