<?xml version="1.0" standalone="no"?>
<!DOCTYPE svg PUBLIC "-//W3C//DTD SVG 20010904//EN"
 "http://www.w3.org/TR/2001/REC-SVG-20010904/DTD/svg10.dtd">
<svg version="1.0" xmlns="http://www.w3.org/2000/svg"
 width="512.000000pt" height="512.000000pt" viewBox="0 0 512.000000 512.000000"
 preserveAspectRatio="xMidYMid meet">

<g transform="translate(0.000000,512.000000) scale(0.100000,-0.100000)"
fill="#000000" stroke="none">
<path d="M1708 5105 c-55 -20 -105 -62 -134 -111 l-26 -43 -681 -3 c-677 -3
-682 -3 -722 -25 -47 -25 -95 -74 -121 -123 -18 -33 -19 -68 -19 -575 0 -514
1 -542 19 -579 25 -50 72 -97 122 -122 35 -17 66 -19 301 -22 l262 -3 19 -52
c11 -29 65 -173 121 -322 64 -171 109 -276 122 -287 27 -23 81 -23 109 0 24
20 30 52 76 430 l28 232 212 0 c203 0 212 -1 230 -21 41 -46 100 -63 243 -69
l133 -5 200 -360 c109 -198 208 -368 220 -377 45 -39 138 -4 138 51 0 10 -16
159 -35 331 -19 172 -35 323 -35 336 l0 24 343 0 c379 0 418 5 481 60 l34 30
336 0 c185 0 336 -1 336 -2 0 -2 18 -144 40 -317 35 -279 42 -317 61 -338 26
-27 83 -31 113 -8 12 9 67 141 140 337 l122 323 179 5 c193 6 206 9 275 67 18
15 43 50 56 78 l24 50 0 531 0 530 -26 52 c-14 29 -42 66 -62 82 -73 60 -68
60 -834 60 -535 0 -698 -3 -698 -12 0 -7 -12 11 -26 40 -14 29 -42 65 -62 82
-75 61 -55 60 -851 59 -590 0 -733 -3 -763 -14z m1491 -170 c16 -8 31 -22 35
-30 3 -9 6 -299 6 -644 l0 -628 -26 -24 -26 -24 -416 -3 c-377 -2 -418 -4
-435 -20 -34 -30 -35 -54 -16 -227 11 -92 18 -170 16 -171 -2 -2 -52 84 -111
190 -59 107 -115 201 -123 208 -11 9 -66 15 -179 18 -155 5 -164 6 -188 29
l-26 24 0 632 c0 665 -1 648 45 673 14 8 232 11 718 12 593 0 702 -2 726 -15z
m-1659 -710 l0 -555 -229 0 c-299 0 -276 17 -304 -218 -12 -95 -24 -172 -28
-172 -3 0 -23 46 -44 103 -92 249 -96 257 -125 272 -24 12 -81 15 -305 15
l-277 0 -29 29 -29 29 0 497 0 497 29 29 29 29 656 0 656 0 0 -555z m3279 540
c16 -8 31 -22 35 -30 3 -9 6 -241 6 -516 l0 -500 -25 -24 c-24 -25 -25 -25
-224 -25 -193 0 -201 -1 -225 -22 -17 -16 -45 -76 -86 -187 -60 -161 -79 -206
-80 -186 -1 52 -43 335 -51 351 -21 42 -45 44 -409 44 l-350 0 0 555 0 555
690 0 c587 0 695 -2 719 -15z"/>
<path d="M1880 4525 l0 -85 425 0 425 0 0 85 0 85 -425 0 -425 0 0 -85z"/>
<path d="M2900 4525 l0 -85 85 0 85 0 0 85 0 85 -85 0 -85 0 0 -85z"/>
<path d="M1880 4015 l0 -85 255 0 255 0 0 85 0 85 -255 0 -255 0 0 -85z"/>
<path d="M2560 4015 l0 -85 255 0 255 0 0 85 0 85 -255 0 -255 0 0 -85z"/>
<path d="M530 4581 c-83 -26 -151 -93 -174 -172 -20 -66 -20 -92 0 -159 14
-48 35 -74 217 -263 111 -116 216 -219 232 -229 59 -36 64 -33 292 195 243
241 263 270 263 377 0 158 -123 272 -280 257 -71 -6 -122 -32 -179 -91 l-44
-45 -58 53 c-81 75 -180 104 -269 77z m199 -246 c78 -76 91 -85 125 -85 34 0
47 9 126 85 78 75 93 85 125 85 52 0 85 -36 85 -91 0 -42 -4 -47 -168 -211
l-167 -169 -165 166 c-91 91 -168 175 -173 187 -20 56 27 118 91 118 30 0 46
-11 121 -85z"/>
<path d="M4229 4310 l-223 -260 -96 95 -95 95 -60 -60 -60 -60 135 -135 c74
-75 145 -138 158 -141 12 -4 33 -3 46 0 16 4 116 113 285 310 144 167 261 308
261 313 0 10 -108 103 -120 103 -5 0 -109 -117 -231 -260z"/>
<path d="M858 2455 c-390 -95 -617 -531 -470 -905 27 -71 80 -160 118 -201
l25 -26 -63 -38 c-77 -47 -241 -209 -292 -288 -85 -131 -145 -287 -165 -431
-6 -42 -11 -187 -11 -322 l0 -244 85 0 85 0 0 243 c0 133 5 271 10 307 42 261
212 505 435 624 57 30 68 31 98 12 12 -8 58 -27 102 -41 157 -53 336 -43 487
26 l69 32 47 -22 c26 -13 75 -43 108 -67 66 -46 184 -169 184 -190 0 -7 -16
-39 -34 -71 -50 -84 -96 -204 -117 -308 -15 -72 -19 -135 -19 -317 l0 -228 85
0 85 0 0 219 c0 241 9 308 59 436 63 164 211 336 364 423 l74 42 64 -29 c95
-45 181 -64 289 -64 108 0 194 19 289 64 l64 29 75 -42 c150 -85 293 -248 360
-409 51 -124 62 -202 62 -449 l0 -220 85 0 85 0 0 224 c0 244 -11 331 -57 459
-27 75 -68 160 -103 213 l-20 31 66 72 c71 77 159 145 236 182 l47 22 69 -32
c179 -82 388 -80 571 7 l55 25 74 -38 c148 -76 307 -259 372 -426 48 -126 60
-222 60 -495 l0 -244 86 0 86 0 -4 293 c-4 275 -6 298 -30 388 -66 243 -217
458 -419 591 l-76 51 46 61 c205 271 180 642 -59 886 -74 75 -173 138 -270
171 -90 31 -278 38 -370 15 -249 -63 -440 -251 -506 -496 -23 -85 -23 -243 -1
-330 21 -81 74 -189 126 -256 l39 -52 -83 -56 c-46 -31 -115 -90 -155 -132
l-71 -75 -47 43 c-26 24 -76 64 -112 88 -36 23 -66 44 -68 46 -2 1 13 23 32
49 95 124 135 233 143 386 16 316 -169 586 -472 686 -69 23 -97 27 -205 27
-108 0 -136 -4 -205 -27 -289 -95 -475 -352 -475 -651 0 -154 48 -294 140
-415 23 -29 40 -55 38 -57 -3 -2 -31 -21 -64 -42 -32 -21 -82 -60 -110 -85
l-51 -46 -89 88 c-49 48 -119 106 -156 130 l-66 43 39 51 c95 124 142 265 142
422 0 206 -84 387 -241 518 -67 56 -192 121 -277 142 -74 19 -249 18 -327 0z
m303 -171 c244 -72 403 -313 368 -559 -61 -431 -593 -596 -882 -275 -296 329
-67 848 374 850 50 0 108 -7 140 -16z m3070 0 c369 -109 498 -550 242 -834
-253 -281 -719 -194 -854 160 -104 275 46 580 330 671 72 23 209 24 282 3z
m-1506 -94 c290 -100 426 -427 294 -706 -128 -271 -481 -370 -735 -206 -270
175 -315 560 -91 781 86 85 176 133 287 155 51 10 186 -3 245 -24z"/>
</g>
</svg>
