<?xml version="1.0" standalone="no"?>
<!DOCTYPE svg PUBLIC "-//W3C//DTD SVG 20010904//EN"
 "http://www.w3.org/TR/2001/REC-SVG-20010904/DTD/svg10.dtd">
<svg version="1.0" xmlns="http://www.w3.org/2000/svg"
 width="512.000000pt" height="512.000000pt" viewBox="0 0 512.000000 512.000000"
 preserveAspectRatio="xMidYMid meet">

<g transform="translate(0.000000,512.000000) scale(0.100000,-0.100000)"
fill="#000000" stroke="none">
<path d="M3728 5104 c-68 -16 -128 -45 -183 -88 -266 -207 -2621 -2115 -2643
-2142 -149 -180 -149 -448 0 -628 32 -39 2576 -2096 2673 -2161 194 -130 444
-106 610 60 33 33 72 83 87 111 62 115 58 -34 58 2304 0 2338 4 2189 -58 2304
-15 28 -54 79 -88 113 -122 121 -289 168 -456 127z"/>
</g>
</svg>
