<svg width="76" height="74" viewBox="0 0 76 74" fill="none" xmlns="http://www.w3.org/2000/svg">
<path d="M70.475 38.8289C77.5375 30.0008 77.5375 15.7039 70.475 6.87581C64.225 -0.936692 54.375 -1.95232 47.1875 4.46956L46.9875 4.64143C45.1875 6.25081 44.775 9.37581 46.0625 11.6102C47.35 13.8446 49.85 14.3758 51.6375 12.7664L51.8375 12.5946C55.85 9.01643 61.3375 9.57893 64.8125 13.9383C68.75 18.8602 68.75 26.8289 64.8125 31.7508L50.7875 49.3133C46.85 54.2352 40.475 54.2352 36.5375 49.3133C33.05 44.9539 32.6 38.0946 35.4625 33.0946L35.6 32.8446C36.8875 30.5946 36.4625 27.4696 34.675 25.8758C32.8875 24.2821 30.375 24.7977 29.1 27.0321L28.9625 27.2821C23.8125 36.2508 24.625 48.5633 30.875 56.3758C37.9375 65.2039 49.375 65.2039 56.4375 56.3758L70.475 38.8289ZM5.52502 35.1727C-1.53748 44.0008 -1.53748 58.2977 5.52502 67.1258C11.775 74.9383 21.625 75.9539 28.8125 69.5321L29.0125 69.3602C30.8125 67.7508 31.225 64.6258 29.9375 62.3914C28.65 60.1571 26.15 59.6258 24.3625 61.2352L24.1625 61.4071C20.15 64.9852 14.6625 64.4227 11.1875 60.0633C7.25002 55.1258 7.25002 47.1571 11.1875 42.2352L25.2125 24.6883C29.15 19.7664 35.525 19.7664 39.4625 24.6883C42.95 29.0477 43.4 35.9071 40.5375 40.9227L40.4 41.1727C39.1125 43.4227 39.5375 46.5477 41.325 48.1414C43.1125 49.7352 45.625 49.2196 46.9 46.9852L47.0375 46.7352C52.1875 37.7508 51.375 25.4383 45.125 17.6258C38.0625 8.79768 26.625 8.79768 19.5625 17.6258L5.52502 35.1727Z" fill="black"/>
</svg>
