<?xml version="1.0" standalone="no"?>
<!DOCTYPE svg PUBLIC "-//W3C//DTD SVG 20010904//EN"
 "http://www.w3.org/TR/2001/REC-SVG-20010904/DTD/svg10.dtd">
<svg version="1.0" xmlns="http://www.w3.org/2000/svg"
 width="512.000000pt" height="512.000000pt" viewBox="0 0 512.000000 512.000000"
 preserveAspectRatio="xMidYMid meet">

<g transform="translate(0.000000,512.000000) scale(0.100000,-0.100000)"
fill="#000000" stroke="none">
<path d="M2415 5103 c-87 -6 -256 -33 -355 -58 -742 -185 -1334 -777 -1513
-1515 -76 -310 -78 -665 -6 -973 60 -255 177 -514 331 -730 26 -37 48 -69 48
-71 0 -2 -30 -12 -67 -21 -146 -38 -239 -109 -290 -219 -25 -54 -28 -73 -28
-159 0 -78 -3 -98 -15 -102 -8 -2 -91 -25 -185 -50 -93 -25 -181 -53 -195 -62
-112 -71 -162 -201 -126 -326 14 -48 30 -72 101 -146 103 -109 106 -122 71
-252 -30 -109 -32 -137 -11 -206 19 -64 88 -143 152 -174 95 -46 141 -37 991
198 51 14 113 39 137 55 93 62 139 179 116 291 -8 34 -14 69 -15 77 -1 11 30
19 134 36 183 30 389 52 540 59 161 8 187 12 211 36 25 25 24 60 -2 93 -19 25
-25 26 -107 26 -333 0 -917 -93 -1319 -210 -57 -17 -109 -30 -115 -28 -18 6
-218 639 -218 691 0 58 17 102 59 149 36 41 74 58 193 88 45 12 91 23 100 26
12 4 23 -6 37 -34 26 -51 87 -105 144 -127 50 -19 71 -18 331 5 109 10 167 10
265 1 212 -20 344 -55 534 -143 176 -81 258 -82 434 0 194 89 322 124 535 143
99 9 156 9 260 -1 259 -24 285 -24 335 -5 57 22 118 76 144 127 14 28 25 38
37 34 9 -3 55 -14 100 -26 119 -30 157 -47 193 -88 42 -47 59 -91 59 -149 0
-52 -200 -685 -218 -691 -6 -2 -58 11 -115 28 -400 116 -987 210 -1318 210
-77 0 -88 -2 -107 -23 -39 -42 -24 -99 30 -115 18 -6 95 -13 170 -16 200 -9
659 -66 680 -85 4 -3 0 -33 -8 -66 -36 -138 28 -282 150 -335 33 -15 459 -132
876 -242 129 -33 222 -8 305 84 46 51 75 122 75 182 0 17 -12 73 -26 125 -35
130 -32 143 71 252 71 74 87 98 101 146 36 125 -14 255 -126 326 -21 13 -152
52 -355 106 l-40 10 0 98 c0 86 -3 105 -28 158 -56 120 -136 179 -304 224
l-42 12 47 67 c192 269 319 602 361 942 23 183 12 477 -25 660 -35 171 -138
465 -180 511 -23 25 -78 25 -104 -1 -29 -29 -25 -64 19 -166 78 -181 134 -405
147 -586 l7 -98 -195 0 -195 0 -5 168 c-4 144 -8 174 -27 217 -44 99 -116 150
-240 169 l-75 12 -11 44 c-7 25 -17 55 -23 67 -19 35 -76 73 -122 81 l-42 7
-34 120 c-53 186 -52 177 -7 198 77 37 200 114 295 184 l97 72 56 -60 c30 -33
81 -93 113 -132 31 -40 64 -77 72 -84 52 -42 134 19 110 82 -15 39 -90 133
-188 236 -427 449 -1027 683 -1647 642z m65 -601 l0 -418 -96 8 c-126 10 -310
49 -431 90 -117 40 -115 34 -44 182 128 265 303 460 477 531 104 43 94 83 94
-393z m300 371 c147 -72 316 -272 431 -509 71 -148 73 -142 -44 -182 -120 -41
-300 -79 -429 -89 l-98 -9 0 419 0 420 33 -7 c17 -3 66 -23 107 -43z m-744
-53 c-98 -103 -181 -229 -266 -402 l-66 -137 -78 45 c-98 55 -200 124 -246
163 l-35 31 35 31 c63 55 212 148 335 209 113 56 337 139 379 140 13 0 -3 -23
-58 -80z m1125 40 c134 -44 263 -103 384 -174 81 -49 234 -157 234 -166 0 -11
-164 -125 -260 -180 l-103 -59 -66 137 c-85 173 -168 299 -266 402 -46 48 -70
80 -61 80 9 0 71 -18 138 -40z m-1843 -513 c79 -60 206 -140 285 -178 57 -28
57 -14 3 -204 l-34 -120 -42 -7 c-46 -8 -103 -46 -122 -81 -6 -12 -16 -42 -23
-67 l-11 -44 -75 -12 c-124 -19 -196 -70 -240 -169 -19 -43 -23 -73 -27 -217
l-5 -168 -195 0 -195 0 6 106 c20 320 139 653 338 944 81 119 237 294 252 282
7 -5 45 -35 85 -65z m577 -303 c150 -52 380 -99 530 -106 l50 -3 3 -122 3
-123 -53 22 c-158 64 -382 114 -575 127 -62 4 -115 10 -118 12 -3 3 9 56 26
118 26 93 34 111 48 106 9 -4 48 -18 86 -31z m1464 -76 c17 -61 29 -114 26
-117 -3 -2 -56 -8 -118 -12 -193 -13 -417 -63 -575 -127 l-53 -22 3 123 3 122
50 3 c158 8 412 61 555 115 36 14 68 25 71 26 4 0 21 -49 38 -111z m-1514
-278 c226 -19 421 -67 600 -150 97 -45 129 -44 260 12 200 84 346 119 577 138
141 12 288 5 300 -14 4 -6 8 -387 8 -847 0 -674 -3 -839 -13 -847 -8 -7 -69
-11 -157 -12 -274 0 -495 -52 -732 -171 -54 -27 -111 -49 -128 -49 -17 0 -74
22 -128 49 -237 119 -461 171 -736 172 -85 0 -145 4 -153 11 -10 8 -13 80 -13
333 l0 324 -26 20 c-15 12 -37 21 -50 21 -28 0 -61 -30 -69 -63 -3 -12 -5
-169 -3 -348 l3 -326 28 -42 c46 -69 83 -80 267 -80 265 0 462 -46 690 -159
109 -54 119 -57 190 -57 71 0 81 3 190 57 226 113 415 156 700 160 152 3 168
5 202 26 20 13 47 40 60 60 l23 37 3 773 2 772 28 0 c57 -1 107 -19 135 -50
l27 -30 0 -870 0 -870 -29 -32 c-28 -31 -33 -33 -98 -33 -37 0 -129 6 -203 14
-302 30 -607 -23 -886 -154 -135 -63 -173 -63 -308 0 -279 131 -584 184 -886
154 -74 -8 -166 -14 -203 -14 -65 0 -70 2 -98 33 l-29 32 0 870 0 870 28 30
c27 31 77 49 134 50 l27 0 3 -286 3 -286 24 -19 c32 -26 73 -24 99 4 21 23 22
29 24 403 l3 379 50 6 c83 10 126 9 260 -1z m-815 -1290 c0 -291 -2 -530 -4
-530 -2 0 -35 48 -74 108 -121 187 -205 374 -256 577 -26 103 -56 289 -56 344
l0 31 195 0 195 0 0 -530z m3446 438 c-15 -210 -88 -471 -188 -677 -46 -94
-180 -311 -193 -311 -3 0 -5 243 -5 540 l0 540 196 0 197 0 -7 -92z m-3643
-2342 c29 -12 120 -47 204 -77 84 -29 149 -56 145 -60 -4 -3 -171 -50 -371
-103 -388 -104 -397 -105 -451 -59 -51 43 -56 84 -25 199 44 162 22 245 -95
359 -68 66 -90 101 -90 140 0 39 25 92 54 110 13 9 105 38 203 64 l178 48 98
-299 98 -300 52 -22z m4026 534 c79 -21 125 -94 106 -167 -3 -15 -39 -61 -79
-102 -127 -132 -146 -200 -101 -365 31 -115 26 -156 -25 -199 -54 -46 -63 -45
-451 59 -200 53 -367 99 -371 103 -4 3 61 30 145 60 84 30 175 65 204 77 l52
22 97 300 97 299 141 -37 c78 -21 161 -43 185 -50z m-3440 -451 c8 -30 11 -66
8 -80 -15 -56 -15 -56 -174 1 -81 29 -152 56 -156 60 -9 8 268 81 293 77 8 -1
20 -25 29 -58z m2464 25 c81 -21 144 -40 140 -44 -4 -4 -75 -31 -156 -60 -159
-57 -159 -57 -174 -1 -5 21 11 111 24 134 6 10 4 11 166 -29z"/>
<path d="M1853 2955 c-117 -54 -162 -218 -71 -256 43 -17 79 4 96 56 16 50 39
75 68 75 27 0 64 -44 64 -76 0 -23 42 -64 66 -64 7 0 24 5 38 11 84 39 37 197
-75 253 -66 33 -118 33 -186 1z"/>
<path d="M3081 2954 c-112 -56 -159 -214 -75 -253 14 -6 31 -11 38 -11 24 0
66 41 66 64 0 32 37 76 64 76 29 0 52 -25 68 -75 17 -52 53 -73 96 -56 60 25
65 101 12 184 -34 53 -113 97 -175 97 -24 0 -63 -11 -94 -26z"/>
<path d="M2365 2655 c-33 -32 -31 -67 5 -108 90 -103 290 -103 380 0 36 41 38
76 5 108 -31 32 -66 32 -104 -1 -17 -14 -44 -29 -61 -34 -38 -11 -82 1 -121
34 -38 33 -73 33 -104 1z"/>
</g>
</svg>
