<svg width="40" height="40" viewBox="0 0 40 40" fill="none" xmlns="http://www.w3.org/2000/svg">
<circle cx="20" cy="20" r="20" fill="#FEE500"/>
<path d="M20.0569 9.65234C13.8345 9.65234 8.81641 13.6668 8.81641 18.5403C8.81641 21.7037 10.9039 24.4737 14.0352 26.0554L12.9754 30.0137C12.9554 30.073 12.9523 30.1367 12.9665 30.1977C12.9807 30.2586 13.0116 30.3145 13.0557 30.3589C13.12 30.4156 13.2028 30.447 13.2885 30.4472C13.3596 30.4415 13.4271 30.4134 13.4812 30.3669L18.0416 27.2919C18.7148 27.3848 19.3934 27.433 20.073 27.4363C26.2873 27.4363 31.3135 23.4219 31.3135 18.5403C31.3135 13.6587 26.2713 9.65234 20.0569 9.65234Z" fill="#392020"/>
<path d="M12.7511 17.1357H11.5226C11.3704 17.1401 11.22 17.1011 11.0891 17.0233C11.0309 16.9869 10.981 16.9388 10.9423 16.8822C10.9036 16.8255 10.877 16.7615 10.8643 16.6941C10.8604 16.6514 10.8604 16.6084 10.8643 16.5657C10.8604 16.4857 10.876 16.406 10.9095 16.3333C10.943 16.2606 10.9936 16.1971 11.0569 16.1482C11.1969 16.0468 11.3659 15.9933 11.5387 15.9956H15.24C15.3935 15.9902 15.5449 16.0323 15.6736 16.116C15.7331 16.1508 15.7841 16.1985 15.823 16.2554C15.8619 16.3123 15.8876 16.3772 15.8984 16.4452C15.9023 16.4853 15.9023 16.5256 15.8984 16.5657C15.9022 16.6468 15.8867 16.7276 15.8532 16.8016C15.8197 16.8756 15.7692 16.9405 15.7057 16.9912C15.5691 17.0924 15.4018 17.1435 15.232 17.1357H14.0437V21.3589C14.0485 21.4489 14.0346 21.5389 14.0028 21.6232C13.971 21.7075 13.9221 21.7843 13.859 21.8487C13.7986 21.9103 13.7259 21.9585 13.6457 21.9903C13.5655 22.0221 13.4796 22.0368 13.3934 22.0333C13.2426 22.0376 13.095 21.9895 12.9759 21.8969C12.8624 21.8065 12.7855 21.6782 12.7591 21.5356C12.7511 21.4769 12.7511 21.4176 12.7591 21.3589L12.7511 17.1357Z" fill="#FEE500"/>
<path d="M16.252 16.3079C16.2873 16.1758 16.3702 16.0614 16.4848 15.9867C16.6069 15.9175 16.746 15.8841 16.8863 15.8904H17.1913C17.3401 15.8851 17.4875 15.9212 17.6169 15.9948C17.754 16.087 17.8515 16.2274 17.8899 16.3882L19.4957 20.9245C19.5373 21.0429 19.5721 21.1636 19.6 21.2859C19.6028 21.3367 19.6028 21.3876 19.6 21.4384C19.6027 21.5167 19.5883 21.5946 19.5578 21.6667C19.5273 21.7388 19.4814 21.8034 19.4234 21.8559C19.3671 21.9136 19.2996 21.959 19.225 21.9894C19.1504 22.0198 19.0704 22.0345 18.9898 22.0325C18.866 22.0449 18.7416 22.0152 18.6367 21.9482C18.5319 21.8812 18.4526 21.7808 18.4117 21.6632L18.0745 20.6757H15.9629L15.6257 21.6632C15.5858 21.7831 15.5056 21.8854 15.3987 21.9528C15.2919 22.0201 15.1649 22.0483 15.0396 22.0325C14.9038 22.0361 14.7708 21.9936 14.6622 21.9121C14.5564 21.8279 14.485 21.7081 14.4615 21.5749C14.4573 21.5295 14.4573 21.4838 14.4615 21.4384C14.4477 21.3587 14.4477 21.2773 14.4615 21.1976C14.4615 21.1093 14.5177 21.0129 14.5498 20.9245L16.252 16.3079ZM17.0549 17.3597L16.2921 19.7684H17.8096L17.0549 17.3597Z" fill="#FEE500"/>
<path d="M19.7839 16.5658C19.7757 16.3856 19.8392 16.2095 19.9605 16.076C20.0222 16.0139 20.0962 15.9652 20.1778 15.9334C20.2594 15.9016 20.3468 15.8872 20.4342 15.8913C20.5846 15.8895 20.7314 15.9376 20.8517 16.0278C20.9633 16.122 21.0373 16.253 21.0605 16.3971C21.0684 16.453 21.0684 16.5099 21.0605 16.5658V20.789H23.2685C23.4215 20.787 23.5719 20.8287 23.702 20.9094C23.7605 20.9454 23.8107 20.9934 23.8494 21.0501C23.8882 21.1068 23.9145 21.171 23.9268 21.2386C23.9268 21.2386 23.9268 21.3189 23.9268 21.359C23.9306 21.439 23.9151 21.5186 23.8816 21.5913C23.848 21.664 23.7975 21.7276 23.7341 21.7766C23.5942 21.8779 23.4252 21.9314 23.2524 21.9291H20.5386C20.3658 21.9402 20.194 21.8952 20.0489 21.8007C19.919 21.7036 19.8325 21.5594 19.808 21.3992C19.8021 21.311 19.8021 21.2224 19.808 21.1342L19.7839 16.5658Z" fill="#FEE500"/>
<path d="M24.0717 16.5652C24.0669 16.3856 24.13 16.2107 24.2483 16.0755C24.3687 15.9661 24.523 15.9016 24.6854 15.8928C24.8477 15.884 25.0081 15.9315 25.1395 16.0273C25.2535 16.1206 25.3304 16.2515 25.3563 16.3965C25.3603 16.4527 25.3603 16.5091 25.3563 16.5652V18.5323L27.3876 16.1878C27.4659 16.1078 27.549 16.0328 27.6365 15.9631C27.719 15.9139 27.8136 15.8888 27.9095 15.8907C28.0499 15.89 28.1871 15.932 28.3029 16.0112C28.3575 16.0479 28.4042 16.0954 28.44 16.1505C28.4759 16.2057 28.5003 16.2675 28.5117 16.3324C28.5149 16.3482 28.5149 16.3647 28.5117 16.3806C28.5078 16.3991 28.5078 16.4182 28.5117 16.4367C28.5114 16.5212 28.4893 16.6042 28.4475 16.6776C28.4049 16.7554 28.3537 16.828 28.2949 16.8943L26.9621 18.3557L28.5679 20.8446V20.9249C28.6513 21.0399 28.7163 21.1673 28.7606 21.3023V21.3424C28.7699 21.4354 28.7565 21.5293 28.7215 21.616C28.6866 21.7027 28.6311 21.7796 28.5599 21.8402C28.4259 21.9414 28.2621 21.9951 28.0942 21.9928C27.9826 21.9974 27.8719 21.9724 27.773 21.9205C27.6661 21.8487 27.578 21.7524 27.5161 21.6395L26.0227 19.2308L25.3082 19.9775V21.3183C25.313 21.4979 25.2499 21.6728 25.1315 21.808C25.0681 21.8701 24.9926 21.9185 24.9097 21.9503C24.8269 21.982 24.7384 21.9965 24.6498 21.9928C24.5016 21.9959 24.357 21.9476 24.2403 21.8563C24.1269 21.7659 24.0499 21.6376 24.0235 21.495C24.0156 21.4364 24.0156 21.3769 24.0235 21.3183L24.0717 16.5652Z" fill="#FEE500"/>
</svg>
