<?xml version="1.0" standalone="no"?>
<!DOCTYPE svg PUBLIC "-//W3C//DTD SVG 20010904//EN"
 "http://www.w3.org/TR/2001/REC-SVG-20010904/DTD/svg10.dtd">
<svg version="1.0" xmlns="http://www.w3.org/2000/svg"
 width="512.000000pt" height="512.000000pt" viewBox="0 0 512.000000 512.000000"
 preserveAspectRatio="xMidYMid meet">

<g transform="translate(0.000000,512.000000) scale(0.100000,-0.100000)"
fill="#000000" stroke="none">
<path d="M2472 4900 c-163 -34 -291 -168 -356 -375 -104 -334 -168 -527 -302
-919 -85 -247 -159 -457 -165 -467 -15 -29 -35 -36 -182 -60 l-137 -24 0
-1253 0 -1253 1148 3 c1081 3 1150 4 1202 22 144 48 256 146 322 285 23 47
207 406 410 798 345 668 369 716 379 787 36 243 -118 483 -361 562 -50 16
-122 19 -821 24 -610 4 -769 8 -782 18 -37 31 -36 49 55 727 100 743 101 769
51 876 -52 111 -146 197 -253 232 -61 20 -155 27 -208 17z"/>
<path d="M329 3058 c0 -7 0 -647 0 -1422 1 -1123 3 -1411 13 -1418 22 -13 772
-10 786 4 9 9 12 340 12 1430 l0 1418 -405 0 c-317 0 -405 -3 -406 -12z"/>
</g>
</svg>
