<?xml version="1.0" standalone="no"?>
<!DOCTYPE svg PUBLIC "-//W3C//DTD SVG 20010904//EN"
 "http://www.w3.org/TR/2001/REC-SVG-20010904/DTD/svg10.dtd">
<svg version="1.0" xmlns="http://www.w3.org/2000/svg"
 width="512.000000pt" height="512.000000pt" viewBox="0 0 512.000000 512.000000"
 preserveAspectRatio="xMidYMid meet">

<g transform="translate(0.000000,512.000000) scale(0.100000,-0.100000)"
fill="#000000" stroke="none">
<path d="M3571 5106 c-38 -21 -50 -55 -51 -138 l0 -78 -110 0 c-140 0 -199
-20 -274 -93 -75 -74 -96 -134 -96 -277 l0 -110 -75 0 c-88 0 -127 -16 -145
-59 -16 -39 -5 -82 26 -112 22 -21 38 -25 110 -28 l84 -3 0 -243 0 -243 -84
-3 c-72 -3 -88 -7 -110 -28 -31 -30 -42 -73 -26 -112 18 -43 57 -59 145 -59
l75 0 0 -110 c0 -137 20 -198 88 -268 77 -78 125 -96 270 -100 l122 -4 0 -74
c0 -87 16 -126 59 -144 39 -16 82 -5 112 26 21 22 25 38 28 110 l3 84 243 0
243 0 3 -84 c3 -72 7 -88 28 -110 30 -31 73 -42 112 -26 43 18 59 57 59 145
l0 75 110 0 c141 0 202 21 276 94 73 74 94 135 94 276 l0 110 75 0 c86 0 125
15 143 55 19 41 14 72 -17 107 -28 32 -33 33 -115 37 l-86 3 0 243 0 243 84 3
c72 3 88 7 110 28 31 30 42 73 26 112 -18 43 -57 59 -145 59 l-75 0 0 110 c0
141 -21 202 -94 276 -74 73 -135 94 -276 94 l-110 0 0 75 c0 86 -13 121 -51
141 -42 21 -75 17 -111 -15 -32 -28 -33 -33 -37 -115 l-3 -86 -243 0 -243 0
-3 86 c-4 82 -5 87 -37 115 -35 32 -72 37 -111 15z m1059 -431 c62 -32 60 -12
60 -710 0 -698 2 -678 -60 -710 -26 -14 -110 -15 -675 -13 l-645 3 -32 33 -33
32 0 654 0 654 25 27 c14 15 34 31 45 35 11 5 305 9 653 9 547 1 637 -1 662
-14z"/>
<path d="M1867 3858 c-117 -15 -232 -102 -285 -216 -23 -49 -27 -70 -27 -152
1 -84 4 -102 30 -155 36 -75 104 -143 178 -179 l57 -28 0 -63 0 -63 -402 -5
c-445 -5 -460 -6 -593 -72 -120 -58 -224 -161 -289 -285 -48 -92 -66 -167 -73
-307 l-6 -123 -117 0 c-111 0 -120 -2 -179 -31 -74 -37 -124 -98 -147 -177
-13 -42 -15 -87 -12 -196 3 -121 7 -147 26 -183 34 -66 78 -110 139 -140 49
-24 71 -28 173 -31 l117 -4 6 -122 c6 -138 22 -198 80 -310 60 -116 158 -211
279 -271 91 -44 206 -75 284 -75 l34 0 -49 -61 c-100 -124 -151 -272 -151
-441 0 -55 5 -108 10 -119 27 -50 1 -49 979 -49 l911 0 32 29 33 29 -1 114
c-1 175 -50 317 -149 438 l-45 55 87 12 c172 23 294 84 407 204 124 131 176
267 176 460 l0 107 118 4 c98 3 126 8 172 29 68 32 116 78 146 144 22 46 24
63 24 210 0 147 -2 164 -24 210 -24 52 -82 112 -138 142 -25 13 -66 19 -163
23 l-130 5 -6 135 c-5 99 -12 150 -27 193 -65 179 -176 305 -340 387 -118 59
-149 62 -589 67 l-403 5 0 63 0 64 60 27 c146 65 239 238 211 390 -39 211
-214 339 -424 312z m134 -221 c106 -56 119 -192 26 -274 -150 -132 -361 82
-232 235 53 63 131 78 206 39z m920 -888 c99 -48 170 -119 218 -218 l36 -76 3
-595 c3 -532 1 -602 -14 -658 -30 -114 -112 -215 -224 -276 -87 -47 -157 -56
-466 -56 l-280 0 -50 31 c-85 54 -206 154 -294 243 l-85 86 -372 0 -373 0 0
605 0 605 175 0 175 0 0 38 c0 42 25 203 42 269 l11 44 711 -3 711 -3 76 -36z
m-2461 -914 l0 -175 -103 0 c-98 0 -105 1 -128 26 -23 24 -24 32 -24 151 0
124 0 125 28 149 26 22 37 24 128 24 l99 0 0 -175z m3155 150 c24 -23 25 -29
25 -153 0 -125 -1 -129 -26 -153 -23 -21 -36 -24 -125 -27 l-99 -4 0 181 0
181 100 0 c94 0 103 -2 125 -25z m-1287 -1330 c86 -20 156 -58 218 -117 88
-83 142 -186 157 -295 l5 -43 -785 0 -785 0 7 43 c31 204 195 378 391 415 27
6 202 10 389 11 268 0 353 -2 403 -14z"/>
<path d="M1439 2095 c-54 -30 -61 -104 -14 -151 22 -22 32 -24 112 -24 98 0
122 10 143 59 17 42 -2 96 -40 116 -38 19 -166 19 -201 0z"/>
<path d="M2189 2081 c-21 -22 -29 -39 -29 -66 0 -27 8 -44 29 -66 28 -27 34
-29 114 -29 77 0 88 2 116 26 43 36 44 93 2 135 -28 28 -34 29 -116 29 -82 0
-88 -1 -116 -29z"/>
<path d="M1622 1725 c-17 -14 -33 -39 -37 -55 -7 -33 15 -84 44 -100 12 -6
126 -10 296 -10 l277 0 29 29 c37 38 39 88 5 128 l-24 28 -280 3 -279 3 -31
-26z"/>
</g>
</svg>
