<?xml version="1.0" standalone="no"?>
<!DOCTYPE svg PUBLIC "-//W3C//DTD SVG 20010904//EN"
 "http://www.w3.org/TR/2001/REC-SVG-20010904/DTD/svg10.dtd">
<svg version="1.0" xmlns="http://www.w3.org/2000/svg"
 width="512.000000pt" height="512.000000pt" viewBox="0 0 512.000000 512.000000"
 preserveAspectRatio="xMidYMid meet">

<g transform="translate(0.000000,512.000000) scale(0.100000,-0.100000)"
fill="#000000" stroke="none">
<path d="M3559 5104 c-40 -26 -52 -53 -57 -131 l-5 -73 -56 0 c-152 -1 -246
-33 -323 -112 -65 -67 -89 -135 -96 -270 l-5 -108 -68 0 c-80 0 -110 -11 -132
-50 -22 -37 -21 -78 3 -117 22 -37 67 -53 148 -53 l52 0 0 -235 0 -235 -70 0
c-81 0 -110 -11 -133 -50 -30 -51 -16 -115 32 -146 15 -11 54 -19 98 -22 l73
-5 0 -76 c1 -264 139 -401 404 -401 l73 0 5 -73 c5 -79 23 -117 64 -135 49
-23 102 -11 136 32 13 16 18 40 18 99 l0 77 234 0 233 0 5 -73 c7 -101 42
-147 113 -147 72 0 105 46 105 150 l0 70 78 0 c160 0 264 42 334 135 51 68 68
122 75 241 l6 102 71 4 c78 5 105 18 130 59 27 45 21 86 -18 125 -33 33 -37
34 -110 34 l-76 0 0 234 0 233 73 5 c79 5 106 17 131 59 27 45 21 86 -18 125
-33 33 -37 34 -109 34 l-74 0 -6 108 c-3 59 -13 126 -21 150 -34 96 -113 174
-208 208 -24 8 -91 18 -150 21 l-108 6 0 73 c0 63 -3 76 -26 103 -33 39 -85
50 -128 27 -46 -24 -59 -52 -64 -133 l-5 -73 -233 0 -234 0 0 75 c0 67 -3 78
-27 105 -35 39 -95 49 -134 24z m1057 -446 c60 -33 59 -23 59 -708 0 -580 -1
-627 -18 -651 -37 -56 -18 -54 -703 -54 -626 0 -633 0 -661 21 -15 11 -33 36
-40 55 -13 37 -19 1197 -7 1258 8 40 55 88 92 94 15 2 302 4 637 3 554 -1 613
-3 641 -18z"/>
<path d="M1809 3851 c-108 -35 -181 -100 -233 -211 -26 -57 -30 -76 -30 -150
0 -64 6 -99 23 -143 31 -79 113 -166 191 -203 l61 -29 -3 -55 -3 -55 -420 -5
c-400 -5 -423 -7 -478 -27 -112 -43 -181 -86 -263 -168 -132 -132 -193 -283
-194 -481 l0 -91 -112 -5 c-143 -7 -198 -28 -268 -105 -71 -78 -83 -125 -78
-311 3 -136 5 -151 30 -198 34 -64 105 -128 165 -148 31 -11 82 -16 154 -16
l107 0 4 -122 c6 -143 29 -227 88 -329 108 -183 292 -302 507 -327 l61 -7 -44
-58 c-87 -115 -130 -238 -141 -400 -7 -114 5 -160 51 -188 30 -18 61 -19 939
-19 1007 0 954 -4 983 65 29 71 11 249 -38 377 -16 43 -53 111 -82 152 l-53
73 67 7 c147 13 282 79 395 191 132 133 184 256 192 458 l6 127 107 0 c71 0
122 5 153 16 60 20 131 84 165 148 26 50 27 56 27 221 0 157 -2 174 -23 216
-31 64 -86 117 -150 147 -45 20 -75 26 -168 30 l-114 5 0 91 c-1 198 -60 347
-194 482 -68 68 -96 89 -176 127 -52 25 -119 50 -148 56 -33 7 -202 11 -442
11 l-390 0 0 60 0 59 54 26 c72 34 157 126 187 202 17 43 23 80 23 143 1 75
-3 93 -30 150 -37 79 -79 128 -142 168 -96 61 -216 77 -323 43z m187 -217
c100 -47 123 -178 45 -255 -70 -71 -162 -71 -232 0 -125 125 27 331 187 255z
m916 -891 c116 -55 201 -152 239 -274 18 -57 19 -99 19 -628 0 -617 -1 -633
-57 -729 -59 -102 -177 -188 -290 -212 -31 -7 -350 -10 -928 -8 l-880 3 -77
37 c-102 48 -168 114 -216 216 l-37 77 -3 583 c-2 505 -1 592 13 645 37 146
152 266 300 313 31 10 233 12 945 11 l905 -2 67 -32z m-2452 -903 l0 -170 -95
0 c-88 0 -98 2 -120 25 -24 23 -25 30 -25 137 0 162 13 176 158 177 l82 1 0
-170z m3146 137 c22 -26 24 -36 24 -143 0 -109 -1 -116 -25 -139 -22 -23 -32
-25 -120 -25 l-95 0 0 171 0 171 96 -4 c91 -3 97 -5 120 -31z m-1235 -1334
c174 -65 294 -208 322 -386 l6 -37 -773 0 -773 0 9 53 c21 121 110 254 214
319 40 26 139 64 184 72 14 2 189 3 390 2 344 -2 368 -3 421 -23z"/>
<path d="M1015 2543 c-11 -2 -31 -9 -43 -16 -53 -26 -52 -18 -52 -698 l0 -631
34 -34 34 -34 937 0 937 0 34 34 34 34 0 633 c0 610 -1 635 -20 666 -13 21
-31 35 -57 42 -37 11 -1792 14 -1838 4z m1695 -703 l0 -490 -785 0 -785 0 0
490 0 490 785 0 785 0 0 -490z"/>
<path d="M1465 2123 c-32 -8 -74 -54 -81 -89 -4 -20 0 -43 10 -62 27 -53 50
-62 154 -62 90 0 95 1 123 29 23 24 29 38 29 73 0 52 -21 85 -66 104 -32 13
-126 17 -169 7z"/>
<path d="M2214 2116 c-44 -19 -64 -53 -64 -104 0 -35 6 -49 29 -73 28 -28 33
-29 123 -29 104 0 127 9 154 62 21 41 11 87 -26 123 -26 25 -38 29 -107 32
-53 2 -88 -1 -109 -11z"/>
<path d="M1645 1761 c-26 -12 -61 -50 -70 -79 -9 -32 12 -88 42 -112 24 -19
40 -20 307 -20 309 0 310 0 342 62 21 41 11 87 -27 124 l-30 29 -272 2 c-150
1 -281 -2 -292 -6z"/>
</g>
</svg>
